<?xml version="1.0" encoding="iso-8859-1"?>
<!-- Generator: Adobe Illustrator 20.0.0, SVG Export Plug-In . SVG Version: 6.00 Build 0)  -->
<svg version="1.1" id="Layer_1_1_" xmlns="http://www.w3.org/2000/svg" xmlns:xlink="http://www.w3.org/1999/xlink" x="0px" y="0px"
	 viewBox="0 0 64 64" style="enable-background:new 0 0 64 64;" xml:space="preserve">
<g id="Guide">
	<g>
	</g>
	<g>
	</g>
	<g>
	</g>
	<g>
	</g>
	<g>
	</g>
	<g>
	</g>
	<g>
	</g>
	<g>
	</g>
	<g>
	</g>
	<g>
	</g>
	<g>
	</g>
	<g>
	</g>
	<g>
	</g>
	<g>
	</g>
	<g>
	</g>
	<g>
	</g>
	<g>
	</g>
	<g>
	</g>
	<g>
	</g>
	<g>
	</g>
	<g>
	</g>
	<g>
	</g>
	<g>
	</g>
	<g>
	</g>
	<g>
	</g>
	<g>
	</g>
	<g>
	</g>
	<g>
	</g>
	<g>
	</g>
	<g>
	</g>
	<g>
	</g>
	<g>
	</g>
	<g>
	</g>
	<g>
	</g>
	<g>
	</g>
	<g>
	</g>
</g>
<path d="M14,53c7.382,0,13.433-5.747,13.949-13H32c0.309,0,0.6-0.143,0.789-0.386l3.957-5.088C36.27,35.933,36,37.434,36,39
	c0,7.72,6.28,14,14,14s14-6.28,14-14s-6.28-14-14-14c-0.737,0-1.455,0.074-2.162,0.185L45.257,14H54c1.103,0,2,0.897,2,2
	s-0.897,2-2,2h-2v2h2c2.206,0,4-1.794,4-4s-1.794-4-4-4H44c-0.305,0-0.593,0.139-0.782,0.377c-0.19,0.238-0.261,0.55-0.192,0.848
	L44.589,20H26.155l-0.727-2H30c1.654,0,3-1.346,3-3s-1.346-3-3-3H20c-2.206,0-4,1.794-4,4s1.794,4,4,4
	c0.266,0,0.52-0.105,0.707-0.293L22.414,18H23.3l0.917,2.521l-0.07-0.043l-3.725,6.095C18.496,25.574,16.315,25,14,25
	C6.28,25,0,31.28,0,39S6.28,53,14,53z M22,16c-0.266,0-0.52,0.105-0.707,0.293l-1.671,1.671C18.699,17.787,18,16.974,18,16
	c0-1.103,0.897-2,2-2h10c0.552,0,1,0.449,1,1s-0.448,1-1,1H22z M50,27c6.617,0,12,5.383,12,12s-5.383,12-12,12s-12-5.383-12-12
	c0-5.339,3.507-9.871,8.337-11.424l2.688,11.649l1.949-0.45l-2.686-11.638C48.849,27.056,49.417,27,50,27z M42.397,27.261
	l2.983-3.835l0.506,2.193C44.638,26.003,43.469,26.564,42.397,27.261z M43.956,22L32.321,36.958L26.882,22H43.956z M25.055,22.828
	L30.573,38h-2.623c-0.304-4.275-2.53-8.02-5.824-10.379L25.055,22.828z M25.949,38H15.783l5.297-8.667
	C23.803,31.333,25.654,34.445,25.949,38z M14,27c1.934,0,3.756,0.471,5.375,1.286l-6.229,10.192
	c-0.188,0.309-0.195,0.695-0.019,1.011S13.639,40,14,40h11.949C25.438,46.149,20.28,51,14,51C7.383,51,2,45.617,2,39S7.383,27,14,27
	z"/>
<path d="M50,49c5.514,0,10-4.486,10-10h-2c0,4.411-3.589,8-8,8V49z"/>
<path d="M14,31v-2C8.486,29,4,33.486,4,39h2C6,34.589,9.589,31,14,31z"/>
<path d="M12.453,13.374l-1.447-1.38c-0.482,0.506-0.953,1.037-1.397,1.577l1.543,1.271C11.566,14.339,12.004,13.845,12.453,13.374z"
	/>
<path d="M15.357,10.737l-1.234-1.573c-0.553,0.434-1.095,0.891-1.609,1.358l1.344,1.481C14.338,11.568,14.843,11.142,15.357,10.737z
	"/>
<path d="M18.608,8.549l-0.994-1.735c-0.606,0.348-1.208,0.722-1.788,1.112l1.117,1.659C17.483,9.221,18.044,8.873,18.608,8.549z"/>
<path d="M22.142,6.857l-0.729-1.862c-0.648,0.253-1.299,0.536-1.933,0.84l0.863,1.804C20.935,7.356,21.539,7.093,22.142,6.857z"/>
<path d="M9.96,16.401l-1.631-1.158c-0.403,0.568-0.793,1.161-1.156,1.763l1.711,1.035C9.223,17.481,9.585,16.93,9.96,16.401z"/>
<path d="M6.408,23.369L4.514,22.73c-0.224,0.663-0.426,1.343-0.601,2.021l1.938,0.499C6.013,24.618,6.2,23.985,6.408,23.369z"/>
<path d="M7.93,19.755l-1.781-0.908c-0.319,0.626-0.618,1.27-0.889,1.912l1.844,0.775C7.354,20.936,7.633,20.337,7.93,19.755z"/>
<path d="M49.403,8.8c-0.562-0.421-1.144-0.826-1.729-1.203l-1.082,1.682c0.545,0.351,1.087,0.729,1.61,1.121L49.403,8.8z"/>
<path d="M45.861,6.521c-0.618-0.336-1.253-0.652-1.885-0.94l-0.828,1.821c0.59,0.268,1.181,0.562,1.758,0.875L45.861,6.521z"/>
<path d="M25.885,5.695l-0.451-1.948c-0.686,0.159-1.37,0.344-2.035,0.55l0.594,1.91C24.61,6.015,25.247,5.843,25.885,5.695z"/>
<path d="M42.025,4.781c-0.658-0.243-1.333-0.463-2.003-0.656L39.47,6.047c0.624,0.179,1.251,0.385,1.864,0.611L42.025,4.781z"/>
<path d="M29.756,5.092l-0.164-1.993c-0.7,0.058-1.403,0.141-2.091,0.248l0.307,1.977C28.449,5.224,29.104,5.146,29.756,5.092z"/>
<path d="M37.977,3.617c-0.686-0.144-1.384-0.264-2.077-0.357l-0.266,1.982c0.645,0.086,1.295,0.198,1.933,0.332L37.977,3.617z"/>
<path d="M32,5c0.564,0,1.124,0.018,1.68,0.051l0.121-1.996C33.206,3.019,32.605,3,32,3l-0.305,0.001l0.02,2L32,5z"/>
<path d="M17.143,54.547l-1.102,1.669c0.588,0.388,1.193,0.757,1.799,1.097l0.979-1.744C18.254,55.252,17.69,54.909,17.143,54.547z"
	/>
<path d="M22.367,57.231c-0.611-0.233-1.219-0.491-1.805-0.766l-0.85,1.811c0.631,0.296,1.284,0.573,1.941,0.824L22.367,57.231z"/>
<path d="M49.607,55.044l-1.215-1.589c-0.515,0.394-1.053,0.776-1.602,1.136l1.1,1.671C48.478,55.876,49.056,55.466,49.607,55.044z"
	/>
<path d="M38.231,60.329l-0.428-1.954c-0.636,0.139-1.285,0.257-1.93,0.35l0.285,1.979C36.852,60.604,37.549,60.479,38.231,60.329z"
	/>
<path d="M46.088,57.354l-0.973-1.747c-0.569,0.317-1.157,0.617-1.747,0.891l0.844,1.813C44.846,58.017,45.477,57.695,46.088,57.354z
	"/>
<path d="M42.269,59.129l-0.709-1.87c-0.611,0.231-1.236,0.442-1.857,0.627l0.568,1.917C40.938,59.605,41.61,59.378,42.269,59.129z"
	/>
<path d="M30.002,58.927c-0.651-0.047-1.308-0.119-1.95-0.213l-0.291,1.979c0.691,0.102,1.396,0.179,2.095,0.23L30.002,58.927z"/>
<path d="M33.925,58.933C33.29,58.978,32.643,59,31.962,59L32,61c0.688,0,1.384-0.024,2.065-0.072L33.925,58.933z"/>
<path d="M26.121,58.359c-0.636-0.142-1.274-0.308-1.898-0.496l-0.574,1.916c0.669,0.201,1.355,0.38,2.039,0.532L26.121,58.359z"/>
</svg>
