<?xml version="1.0" encoding="utf-8"?>
<!-- Generator: Adobe Illustrator 23.0.3, SVG Export Plug-In . SVG Version: 6.00 Build 0)  -->
<svg version="1.1" id="Layer_1" xmlns="http://www.w3.org/2000/svg" xmlns:xlink="http://www.w3.org/1999/xlink" x="0px" y="0px"
	 viewBox="0 0 62.4 62.4" style="enable-background:new 0 0 62.4 62.4;" xml:space="preserve">
<style type="text/css">
	.st0{fill:#FDCA47;stroke:#231F20;stroke-width:4;stroke-miterlimit:10;}
	.st1{fill:#20201E;}
	.st2{fill:#D05F58;stroke:#231F20;stroke-width:4;stroke-linecap:round;stroke-linejoin:round;stroke-miterlimit:10;}
	.st3{fill:#FFFFFF;stroke:#231F20;stroke-width:4;stroke-linecap:round;stroke-linejoin:round;stroke-miterlimit:10;}
	.st4{fill:none;stroke:#231F20;stroke-width:4;stroke-linecap:round;stroke-miterlimit:10;}
	.st5{fill:#FFFFFF;stroke:#231F20;stroke-width:4;stroke-linecap:round;stroke-miterlimit:10;}
	.st6{fill:#D05F58;stroke:#231F20;stroke-width:4;stroke-linecap:round;stroke-miterlimit:10;}
	.st7{fill:none;stroke:#231F20;stroke-width:4;stroke-linecap:round;stroke-linejoin:round;stroke-miterlimit:10;}
</style>
<circle class="st0" cx="31.2" cy="31.2" r="28.3"/>
<g>
	<path class="st5" d="M20.6,18.2c0,0-4.6-0.1-5.4,5.4"/>
	<path class="st5" d="M41.8,18.2c0,0,4.6-0.1,5.4,5.4"/>
</g>
<g>
	<path class="st4" d="M49.6,32.2c0,0-3.2,11.9-18,11.9h-0.6c-14.8,0-18-11.9-18-11.9"/>
	<path class="st5" d="M15.6,30.8c0,0-1.3-0.9-3.7,0.1c-1.1,0.5-1.3,0.5-2.2,2.1"/>
	<path class="st5" d="M46.5,30.8c0,0,1.3-0.9,3.7,0.1c1.1,0.5,1.3,1.5,2.2,3.1"/>
</g>
</svg>
